<svg viewBox="0 0 100 100" xmlns="http://www.w3.org/2000/svg">
  <defs>
    <!-- Reusable doodle heart path, centered at its bottom tip -->
    <path id="doodle-heart" d="M 0 0 C -3 -6, -9 0, 0 9 C 9 0, 3 -6, 0 0 Z" />
  </defs>

  <!-- Jar elements -->
  <g id="jar">
    <!-- Jar body and thick dark green outline -->
    <path d="M 35 20 C 30 10, 20 10, 20 30 L 20 70 C 20 90, 30 90, 50 90 C 70 90, 80 90, 80 70 L 80 30 C 80 10, 70 10, 65 20 Z"
          fill="#ffffff" stroke="#2f4f46" stroke-width="3" stroke-linejoin="round" stroke-linecap="round"/>

    <!-- Warm yellow-orange lid/top fill -->
    <path d="M 35 20 C 38 15, 62 15, 65 20 L 65 25 C 62 30, 38 30, 35 25 Z"
          fill="#f7c56d" stroke="none"/>

    <!-- Subtle interior dark-green accent lines (stroke-width="0.5") -->
    <!-- Stacked rim lines for lid area -->
    <path d="M 35 25 C 38 28, 62 28, 65 25" fill="none" stroke="#2f4f46" stroke-width="0.5" stroke-linecap="round"/>
    <path d="M 36 28 C 39 31, 61 31, 64 28" fill="none" stroke="#2f4f46" stroke-width="0.5" stroke-linecap="round"/>
    <!-- Interior body accents -->
    <path d="M 40 40 C 42 45, 42 55, 40 60" fill="none" stroke="#2f4f46" stroke-width="0.5" stroke-linecap="round"/>
    <path d="M 60 40 C 58 45, 58 55, 60 60" fill="none" stroke="#2f4f46" stroke-width="0.5" stroke-linecap="round"/>
    <!-- Short squiggle near the base -->
    <path d="M 40 80 Q 50 78, 60 80" fill="none" stroke="#2f4f46" stroke-width="0.5" stroke-linecap="round"/>
  </g>

  <!-- Doodle hearts inside the jar, with dark green outline -->
  <g id="hearts" stroke="#2f4f46" stroke-width="1">
    <!-- Two red hearts (#d24b40) -->
    <use href="#doodle-heart" fill="#d24b40" transform="translate(35 45)"/>
    <use href="#doodle-heart" fill="#d24b40" transform="translate(55 65)"/>
    <!-- Two golden hearts (#f0b562) -->
    <use href="#doodle-heart" fill="#f0b562" transform="translate(40 55)"/>
    <use href="#doodle-heart" fill="#f0b562" transform="translate(60 75)"/>
  </g>
</svg>