<svg width="240" height="150" viewBox="0 0 240 150" fill="#111111" fill-rule="evenodd" xmlns="http://www.w3.org/2000/svg">
  <path d="M10 0 L10 100 C10 120, 30 130, 60 120 C90 110, 100 80, 100 50 C100 20, 90 -10, 60 -20 L40 -20 L40 0 L20 0 L20 46 L40 46 L40 50 L20 50 L20 100 L40 100 Z
           M50 10 C50 4, 56 0, 66 4 C76 8, 80 20, 80 40 C80 46, 76 50, 66 50 L50 50 C44 50, 40 46, 40 40 C40 20, 44 14, 50 10 Z
           M50 50 L66 50 C76 50, 80 54, 80 60 C80 80, 76 90, 66 94 C56 98, 50 94, 50 90 C44 80, 40 70, 40 60 C40 54, 44 50, 50 50 Z" />
  <path d="M120 0 L120 100 C120 110, 130 115, 145 110 C160 105, 165 90, 165 70 C165 50, 160 35, 145 30 L135 30 L135 0 L120 0 Z
           M165 90 C170 110, 160 130, 140 140 C120 150, 100 150, 80 140 C60 130, 50 110, 60 90 C70 70, 90 60, 110 70 C120 75, 125 80, 125 90 C125 100, 120 105, 110 105 C100 105, 95 100, 95 90 C95 80, 100 75, 110 75 C120 75, 125 80, 125 90 Z
           M130 10 C130 4, 136 0, 146 4 C156 8, 160 20, 160 40 C160 46, 156 50, 146 50 L130 50 C124 50, 120 46, 120 40 C120 20, 124 14, 130 10 Z
           M85 100 C85 105, 90 108, 98 108 C106 108, 111 105, 111 100 C111 95, 106 92, 98 92 C90 92, 85 95, 85 100 Z" />
  <path d="M180 0 L180 100 C180 120, 200 130, 230 120 C260 110, 270 80, 270 50 C270 20, 260 -10, 230 -20 C200 -30, 180 -10, 180 0 Z
           M190 10 C190 4, 196 0, 206 4 C216 8, 220 20, 220 40 C220 60, 216 70, 206 74 C196 78, 190 74, 190 60 C190 40, 194 14, 190 10 Z" />
</svg>